<?xml version="1.0" standalone="no"?>
<!DOCTYPE svg PUBLIC "-//W3C//DTD SVG 20010904//EN"
 "http://www.w3.org/TR/2001/REC-SVG-20010904/DTD/svg10.dtd">
<svg version="1.0" xmlns="http://www.w3.org/2000/svg"
 width="96.000000pt" height="96.000000pt" viewBox="0 0 96.000000 96.000000"
 preserveAspectRatio="xMidYMid meet">
<metadata>
Created by potrace 1.11, written by Peter Selinger 2001-2013
</metadata>
<g transform="translate(0.000000,96.000000) scale(0.100000,-0.100000)"
fill="#000000" stroke="none">
<path d="M351 844 c-98 -35 -176 -103 -215 -187 -71 -151 -49 -315 58 -434
108 -120 297 -159 451 -93 59 25 159 125 184 182 51 120 51 218 -1 331 -37 80
-98 141 -183 182 -51 24 -75 29 -155 32 -69 2 -107 -1 -139 -13z m203 -216 c8
-24 37 -103 64 -175 l49 -133 -51 -6 c-64 -9 -59 -11 -69 25 -7 28 -11 31 -50
31 -23 0 -52 3 -64 6 -18 5 -23 1 -31 -27 -8 -32 -11 -34 -55 -37 -26 -2 -47
-1 -47 2 0 3 9 29 21 58 11 29 36 96 54 148 57 164 47 150 109 150 l54 0 16
-42z"/>
<path d="M485 553 c-29 -22 -44 -38 -36 -41 9 -3 2 -15 -20 -38 -43 -44 -32
-43 43 5 36 23 55 40 47 43 -11 4 -9 12 9 37 29 40 19 39 -43 -6z"/>
</g>
</svg>
